<?xml version="1.0" encoding="UTF-8"?>
<svg id="Layer_1" data-name="Layer 1" xmlns="http://www.w3.org/2000/svg" viewBox="0 0 360 360">
  <defs>
    <style>
      .cls-1 {
        font-family: Courier, Courier;
        font-size: 12px;
      }

      .cls-2 {
        fill: #fff;
      }

      .cls-3 {
        font-family: PingFangTC-Semibold-B5pc-H, 'PingFang TC';
        font-size: 50px;
        font-weight: 600;
      }

      .cls-4 {
        fill: none;
        stroke: #000;
        stroke-linecap: round;
        stroke-miterlimit: 10;
        stroke-width: 4px;
      }
    </style>
  </defs>
  <text class="cls-3" transform="translate(288.2325 -25.2912)"><tspan x="0" y="0">嘉麟</tspan></text>
  <text class="cls-3" transform="translate(-191.9915 -25.2912)"><tspan x="0" y="0">嘉麟</tspan></text>
  <g>
    <path d="M127.3157,152.3148v-11.2501h44.1121v11.2501h-7.3278l-3.9223,7.6234h21.3893v1.5539h-46.6279c-.5182,2.7384-1.1101,5.1813-1.8502,7.4015h13.9148c-.1482,8.1409-.8882,12.9521-2.3684,14.5804-1.6283,1.5539-4.293,2.3684-8.1416,2.3684-.8145,0-1.8502-.0744-3.0348-.0744l-.4438-1.4802c1.2583.0744,2.294.1482,3.1085.1482,3.9223-.0737,6.4388-.8882,7.4752-2.4421.962-1.4064,1.5539-5.255,1.7765-11.5464h-12.8047c-.8882,2.2202-1.7758,4.1449-2.7384,5.7732-2.4421,3.7004-6.1425,7.0315-11.1019,9.9918l-.962-1.1846c4.6631-2.8122,8.1416-5.8469,10.51-9.2517,1.0357-1.6276,1.9984-3.4041,2.7384-5.3287h-11.5464v-1.5539h12.0646c.7401-2.2947,1.4057-4.7368,1.8502-7.4015h-16.3569v-1.5539h21.0193l-3.6267-7.6234h-7.1052ZM148.5576,133.6632v-7.1789h-28.569v-1.6283h28.569v-5.625h1.6283v5.625h28.4945v1.6283h-28.4945v7.1789h24.7941v1.6283h-51.2166v-1.6283h24.7941ZM169.7995,142.5448h-40.8554v8.2898h40.8554v-8.2898ZM135.9755,152.3148l3.6267,7.6234h18.9472l3.9967-7.6234h-26.5706ZM176.0902,186.0643h-1.5539v-3.1085h-19.0216v3.1085h-1.6283v-17.9108h22.2038v17.9108ZM174.5363,181.4012v-11.6938h-19.0216v11.6938h19.0216Z"/>
    <path d="M119.4705,226.4541c-.2963,13.0258-1.8502,23.4614-4.7368,31.3811l-1.1846-1.1101c2.8129-7.5497,4.2186-18.1334,4.3668-31.6774v-26.2006h13.6922c-.8138-2.4421-1.7758-4.6624-2.8859-6.587l1.6276-.2963c1.0364,1.9984,1.9984,4.293,2.8866,6.8833h12.0646v1.5546h-9.2517v9.621h7.7708v16.4314h-24.3496ZM126.4275,200.4017h-6.957v9.621h6.957v-9.621ZM119.4705,224.8258h6.957v-13.2484h-6.957v13.2484ZM125.4655,255.1705c2.3684-.8882,4.5142-1.9239,6.4388-3.034l.4438,1.4802c-2.9603,1.5539-5.9206,2.8866-9.0291,3.9223l-.4445-1.4802c.7401-.2219,1.1108-.5919,1.1108-1.0364v-24.5715h1.4802v7.549h6.217v1.5546h-6.217v15.6161ZM134.4209,200.4017h-6.4396v9.621h6.4396v-9.621ZM127.9814,224.8258h6.4396v-13.2484h-6.4396v13.2484ZM143.7464,239.4062l-6.8833,1.1101v14.3586c2.9603-1.3327,5.625-2.6647,7.9197-4.1449l.4438,1.4064c-3.4048,2.0721-6.957,3.7741-10.5837,5.1806l-.4438-1.4802c.7401-.2219,1.1101-.5182,1.1101-.962v-24.4241h1.5539v8.5109l6.8833-1.1838v1.6283ZM136.0493,224.8258h6.217v-13.2484h-6.217v13.2484ZM144.4127,246.437l-1.0364-1.1101c4.5886-5.5506,7.6234-13.0258,9.2517-22.4257l1.6283.2963c-.4445,1.9984-.8145,3.8486-1.2583,5.625h9.3254v1.1838c-1.0364,12.6565-6.1432,22.4257-15.1724,29.3828l-.9627-1.4057c4.5149-3.4785,7.9934-7.6234,10.4363-12.5084-2.5166-2.4421-5.0331-4.4405-7.6234-5.9951-1.332,2.6647-2.8866,4.9587-4.5886,6.957ZM158.6231,211.8737c-3.1829,4.1442-7.1052,7.7708-11.7683,10.8793l-.8882-1.2583c4.5149-3.034,8.3635-6.587,11.5464-10.6574l1.1101,1.0364ZM162.9155,205.7304v-13.544h1.6283v13.544h15.6168v1.6283h-15.6168v15.7643h-1.6283v-15.7643h-15.3942v-1.6283h15.3942ZM156.8467,201.3637l-1.2583.962c-1.5546-2.5903-3.6267-5.4024-6.2914-8.5116l1.2583-.7401c2.8129,3.1829,4.885,5.9214,6.2914,8.2898ZM160.7689,230.3764h-8.2153c-.8882,2.8129-1.8502,5.4032-2.8859,7.7716,2.7384,1.6283,5.2543,3.6267,7.6227,5.9206,1.7765-4.1442,2.961-8.7335,3.4785-13.6922ZM176.4602,222.6793v6.1432h3.996v1.5539h-3.996v15.3205h5.1068v1.6283h-5.1068v11.9902h-1.6283v-11.9902h-10.2881l2.5903-18.5027h7.6978v-6.1432h1.6283ZM168.6149,230.3764l-2.1465,15.3205h8.3635v-15.3205h-6.217ZM181.2707,220.5327l-1.0364,1.0364c-3.7004-3.7004-7.549-7.0315-11.472-9.8436l1.1101-1.1101c4.1449,3.034,7.9934,6.3651,11.3982,9.9174ZM177.8659,193.1483c-1.6283,3.4041-3.6267,6.3651-5.8469,8.8817l-1.2583-.8882c2.1465-2.3684,4.0712-5.255,5.6995-8.6598l1.4057.6664Z"/>
  </g>
  <text class="cls-1" transform="translate(58.1038 256.245) rotate(45.78) scale(.9636 1)"><tspan x="0" y="0">G</tspan></text>
  <text class="cls-1" transform="translate(63.1733 261.4378) rotate(41.7761) scale(.9636 1)"><tspan x="0" y="0">a</tspan></text>
  <text class="cls-1" transform="translate(68.5951 266.2643) rotate(37.8612) scale(.9636 1)"><tspan x="0" y="0">r</tspan></text>
  <text class="cls-1" transform="translate(74.3156 270.6985) rotate(34.0311) scale(.9636 1)"><tspan x="0" y="0">l</tspan></text>
  <text class="cls-1" transform="translate(80.3184 274.739) rotate(30.2643) scale(.9636 1)"><tspan x="0" y="0">e</tspan></text>
  <text class="cls-1" transform="translate(86.5894 278.3854) rotate(26.5465) scale(.9636 1)"><tspan x="0" y="0">n</tspan></text>
  <text class="cls-1" transform="translate(93.05 281.6036) rotate(22.8995) scale(.9636 1)"><tspan x="0" y="0"> </tspan></text>
  <text class="cls-1" transform="translate(99.7132 284.4074) rotate(19.287) scale(.9636 1)"><tspan x="0" y="0">C</tspan></text>
  <text class="cls-1" transform="translate(106.5589 286.7935) rotate(15.6102) scale(.9636 1)"><tspan x="0" y="0">h</tspan></text>
  <text class="cls-1" transform="translate(113.5322 288.7322) rotate(11.87) scale(.9636 1)"><tspan x="0" y="0">a</tspan></text>
  <text class="cls-1" transform="translate(120.607 290.2103) rotate(8.0619) scale(.9636 1)"><tspan x="0" y="0">n</tspan></text>
  <path d="M289.1027,188.1841c-11.1997-26.1327-21.277-29.9694-20.3198-31.6865,1.0449-1.8745,9.6181-8.9156,9.7203-17.1725.2205-17.8262-11.6055-21.4813-11.9883-24.3007-2.0674-15.2252-2.0917-28.5727-5.6949-29.0737-7.48-1.0401-20.46,24.7454-22.6703,24.6834-3.6862-.1033-5.3997-.6903-9.8364-.7144-4.713-.0255-8.7354,1.8697-9.4746-.8758-.8014-2.9768-7.4419-26.3329-13.5067-25.9699-7.4348.4451-8.7072,25.3666-11.2194,28.3517-7.2091,8.5661-12.369,25.8975-10.8807,33.3394,3.048,15.2401,28.0602,24.5291,56.9711,20.9382.3666-.0455.6924.0446.988.2315,0,0,5.4643-1.5619,8.181-3.2927.5625-.3583,2.1795.5985-5.5363,2.9794-1.2241.3777-1.6916.468-2.3746.5361,4.3796,4.0834.3121,34.9332-.1968,36.2361-7.3661,18.8547-26.9694,32.5867-31.4711,42.3531-6.2101,13.4727-3.3391,18.6962,2.3842,27.8882,1.165.2231,2.223.4577,3.6192,1.4176,1.149.79,3.5881,2.7819,2.8191,2.6098-.1901-.0425-1.7548-1.621-3.3679-2.536s-3.2749-1.1663-3.2749-1.1663c-10.0057,2.9001-131.7214,7.3964-137.6255-51.5859-4.1415-41.3743,40.8636-64.813,33.4888-72.0709-9.4648-9.3149-56.3356,32.0978-48.3517,77.0739,14.5186,81.7892,166.7311,54.5338,180.418,58.3642,22.9927,6.4348,50.2086-7.9771,55.1252-21.6448,7.0868-19.7007-.8652-63.1064-5.925-74.9125Z"/>
  <g>
    <path class="cls-2" d="M219.4409,140.354s-4.7914-16.8375-13.733-17.2336c-6.1057-.2704-13.8676,10.5017-13.8676,10.5017,0,0,6.8792,10.9935,12.252,12.1173,5.6868,1.1895,15.3486-5.3854,15.3486-5.3854Z"/>
    <line class="cls-4" x1="208.2081" y1="129.6378" x2="208.2081" y2="141.4493"/>
    <path class="cls-2" d="M235.1669,140.354s4.7914-16.8375,13.733-17.2336c6.1057-.2704,13.8676,10.5017,13.8676,10.5017,0,0-6.8792,10.9935-12.252,12.1173-5.6868,1.1895-15.3486-5.3854-15.3486-5.3854Z"/>
  </g>
  <line class="cls-4" x1="246.3997" y1="129.6378" x2="246.3997" y2="141.4493"/>
</svg>